<?xml version="1.0" encoding="utf-8"?>
<!-- Generator: Adobe Illustrator 16.2.1, SVG Export Plug-In . SVG Version: 6.00 Build 0)  -->
<!DOCTYPE svg PUBLIC "-//W3C//DTD SVG 1.1//EN" "http://www.w3.org/Graphics/SVG/1.1/DTD/svg11.dtd">
<svg version="1.1" id="Layer_1" xmlns="http://www.w3.org/2000/svg" xmlns:xlink="http://www.w3.org/1999/xlink" x="0px" y="0px"
	 width="1280px" height="720px" viewBox="0 0 1280 720" enable-background="new 0 0 1280 720" xml:space="preserve">
<g>
	<g>
		<path fill="none" stroke="#331A14" stroke-width="11.4662" d="M437.031,599.665c73.396-44.021,124.337-121.746,131.549-211.85"/>
		<path fill="none" stroke="#80B3BD" stroke-width="11.4662" d="M326.982,636.55c31.069-3.396,60.542-11.862,87.505-24.522"/>
		<path fill="none" stroke="#331A14" stroke-width="11.4662" d="M66.873,213.986c-28.413,43.222-44.955,95.029-44.955,150.718
			c0,151.122,121.799,273.622,272.039,273.622c2.479,0,4.957-0.029,7.421-0.104"/>
		<path fill="none" stroke="#331A14" stroke-width="11.4662" d="M498.483,179.453c-50.091-54.255-122.455-88.34-202.929-88.34
			c-61.676,0-118.573,20.006-164.349,53.776"/>
		<path fill="none" stroke="#80B3BD" stroke-width="11.4662" d="M569.132,364.72c0-62.064-20.469-119.276-54.912-165.021"/>
	</g>
	<path fill="none" stroke="#E9C01D" stroke-width="6.3727" d="M617.46,282.172c50.628,0,91.671,41.043,91.671,91.685
		c0,50.628-41.043,91.67-91.671,91.67c-50.627,0-91.67-41.042-91.67-91.67C525.79,323.214,566.833,282.171,617.46,282.172z"/>
	<path fill="none" stroke="#80B3BD" stroke-width="7.9659" d="M1065.703,190.859c104.749,0,189.656,84.907,189.656,189.656
		c0,104.741-84.907,189.648-189.656,189.648c-104.733,0-189.641-84.907-189.641-189.648
		C876.062,275.767,960.97,190.859,1065.703,190.859z"/>
	<path fill="none" stroke="#9C3D22" stroke-width="15.2883" d="M516.728,664.155c-67.572,0-129.846-22.597-179.637-60.631
		 M318.308,587.9c-59.734-53.957-97.268-131.929-97.268-218.642c0-66.439,22.035-127.757,59.212-177.056 M297.451,171.42
		c10.571-11.646,22.065-22.439,34.354-32.278 M353.856,123.092c46.701-30.801,102.688-48.725,162.871-48.725
		c163.274,0,295.659,132.035,295.659,294.891c0,2.702-0.03,5.382-0.104,8.054 M810.476,402.978
		c-3.867,33.928-13.512,66.117-27.935,95.559 M770.598,520.491c-47.761,79.614-132.131,134.885-229.907,142.708"/>
	<path fill="none" stroke="#331A14" stroke-width="7.6442" d="M932.394,265.688c2.165,45.611-14.228,91.999-49.135,126.905
		c-26.754,26.755-60.242,42.625-94.954,47.619 M731.048,438.593c-31.069-6.277-60.676-21.439-84.742-45.491
		c-65.289-65.304-65.065-171.396,0.508-236.953c1.074-1.076,2.179-2.15,3.284-3.211 M724.404,111.971
		c51.15-12.953,107.138-1.464,149.39,34.486"/>
</g>
</svg>
